<svg id="Capa_1" enable-background="new 0 0 512 512" height="512" viewBox="0 0 512 512" width="512" xmlns="http://www.w3.org/2000/svg"><g><g><path d="m111.041 68.222c-3.845-26.921-27.253-47.222-54.447-47.222h-41.594c-8.284 0-15 6.716-15 15s6.716 15 15 15h41.594c12.361 0 23.001 9.228 24.749 21.465l8.362 58.535 16.295 14 14.009-14z" fill="#ff405c"/></g><path d="m497 146h-390l30 210h320z" fill="#f4f1f1"/><path d="m299.5 356h157.5l40-210h-197.5z" fill="#dad5d3"/><g><path d="m457 371c7.202 0 13.388-5.119 14.735-12.193l40-210c.836-4.391-.329-8.926-3.178-12.37-2.85-3.443-7.087-5.437-11.557-5.437h-273-103.991-30.304l32.295 226.065v28.935c0 24.813 20.187 45 45 45h290c8.284 0 15-6.716 15-15s-6.716-15-15-15h-290c-8.271 0-15-6.729-15-15v-15zm-44.021-210h65.894l-34.286 180h-50.894zm-96.332 0h66.16l-19.286 180h-51.16zm-30.008 0-4.286 180h-51.219l-10.714-180zm-136.63 180-25.714-180h66.071l10.714 180z" fill="#0a789b"/><g fill="#08475e"><path d="m472 416c0-8.284-6.716-15-15-15h-157.5v30h157.5c8.284 0 15-6.716 15-15z"/><path d="m497 131h-197.5v240h157.5c7.202 0 13.388-5.119 14.735-12.193l40-210c.836-4.391-.329-8.926-3.178-12.37-2.85-3.443-7.087-5.437-11.557-5.437zm-133.479 210h-51.16l4.286-180h66.16zm81.066 0h-50.894l19.286-180h65.894z"/></g></g><circle cx="392" cy="446" fill="#05303d" r="45"/><circle cx="392" cy="446" fill="#dad5d3" r="15"/><circle cx="202" cy="446" fill="#08475e" r="45"/><circle cx="202" cy="446" fill="#f4f1f1" r="15"/></g></svg>